<?xml version="1.0" encoding="utf-8"?>
<!-- Generator: Adobe Illustrator 25.0.1, SVG Export Plug-In . SVG Version: 6.00 Build 0)  -->
<svg version="1.1" id="Layer_1" xmlns="http://www.w3.org/2000/svg" xmlns:xlink="http://www.w3.org/1999/xlink" x="0px" y="0px"
	 viewBox="0 0 73.3 100.4" style="enable-background:new 0 0 73.3 100.4;" xml:space="preserve">
<style type="text/css">
	.st0{fill:#981B46;}
</style>
<g>
	<polygon class="st0" points="64.2,39.8 67,41 64.2,39.8 64.2,39.8 	"/>
	<path class="st0" d="M70.3,78.3H37.9l9-8.8c6.4-5.8,11.5-10.9,15.1-15.2l0,0l-2.3-1.9l0,0l2.3,1.9c3.6-4.3,6.3-8.4,7.8-12.2l0,0
		c0,0,0,0,0,0c0,0,0,0,0,0l0,0c1.5-3.8,2.3-7.6,2.3-11.5c0-5.9-1.5-11.3-4.6-15.9C64.3,10,60,6.4,54.6,3.8l0,0c0,0,0,0,0,0
		c0,0,0,0,0,0l0,0C49.2,1.2,42.9,0,35.9,0C29,0,22.8,1.3,17.4,4C12,6.7,7.6,10.5,4.6,15.5C1.5,20.5,0,26.4,0,33v3h3h18.7h3v-3
		c0-2.6,0.5-4.6,1.4-6.3c0.9-1.6,2.1-2.9,3.7-3.7c1.6-0.9,3.6-1.4,6-1.4c2.3,0,4.3,0.5,6,1.3l0,0l0,0c1.7,0.8,2.9,2,3.9,3.5l0,0l0,0
		l2.5-1.6l0,0l-2.5,1.6c0.9,1.4,1.4,3.2,1.4,5.4c0,2-0.4,3.9-1.2,5.6c-0.9,1.8-2.1,3.7-3.9,5.7l2.2,2l0,0l-2.2-2l0,0l0,0
		c-1.8,2.1-4.1,4.5-6.9,7.2L1.9,81l-1,0.9v1.3v14.2v3h3h66.4h3v-3V81.3v-3H70.3z M46.4,47.1L46.4,47.1
		C46.4,47.1,46.4,47.1,46.4,47.1C46.4,47.1,46.4,47.1,46.4,47.1L46.4,47.1c2.1-2.4,3.7-4.7,4.9-7.1l-2.7-1.3l0,0l2.7,1.3l0,0l0,0
		c1.2-2.5,1.8-5.3,1.8-8.1c0-3.2-0.7-6.1-2.3-8.6l0,0c0,0,0,0,0,0c0,0,0,0,0,0l0,0c-1.5-2.5-3.6-4.4-6.3-5.7l0,0c0,0,0,0,0,0
		c0,0,0,0,0,0l0,0c-2.6-1.3-5.5-1.9-8.6-1.9c-3.3,0-6.3,0.7-8.9,2.1c-2.6,1.4-4.7,3.5-6.1,6.2c-1,1.9-1.6,3.9-1.9,6.1H6.1
		c0.4-4.3,1.6-8.1,3.5-11.3c2.4-4,5.9-7.1,10.4-9.3C24.5,7.2,29.8,6,35.9,6C42.2,6,47.6,7.1,52,9.3l0,0l0,0l1.3-2.7l0,0L52,9.3
		c4.5,2.1,7.9,5,10.4,8.7c2.4,3.6,3.6,7.8,3.6,12.6c0,3.1-0.6,6.2-1.9,9.3L67,41l-2.8-1.1c-1.2,3-3.4,6.5-6.8,10.6
		c-3.4,4-8.2,8.9-14.6,14.7l0,0l0,0l2.1,2.1l0,0l-2.1-2.1L29.1,78.5l2.1,2.1v0l-2.1-2.1l-0.9,0.9v1.3v0.6v3h3h36.1v10.1H6.9v-9.9
		l32.2-29.8l0,0l0,0L37,52.5l0,0l2.1,2.2C42,51.9,44.4,49.4,46.4,47.1z"/>
</g>
</svg>
