<?xml version="1.0" encoding="utf-8"?>
<!-- Generator: Adobe Illustrator 25.0.1, SVG Export Plug-In . SVG Version: 6.00 Build 0)  -->
<svg version="1.1" id="Layer_1" xmlns="http://www.w3.org/2000/svg" xmlns:xlink="http://www.w3.org/1999/xlink" x="0px" y="0px"
	 viewBox="0 0 77.2 101.6" style="enable-background:new 0 0 77.2 101.6;" xml:space="preserve">
<style type="text/css">
	.st0{fill:#981B46;}
</style>
<g>
	<polygon class="st0" points="71.2,71.2 71.2,71.2 71.2,71.2 74.2,71.2 	"/>
	<path class="st0" d="M77.2,71.2L77.2,71.2c0-6.5-2-12-6.2-16.5l0,0c0,0,0,0,0,0c0,0,0,0,0,0l0,0c-2.4-2.6-5.3-4.5-8.8-5.9
		c2.1-1.2,4.1-2.7,5.8-4.5l0,0c0,0,0,0,0,0c0,0,0,0,0,0l0,0c3.8-4.1,5.7-9.2,5.7-15.1h0c0,0,0,0,0,0c0,0,0,0,0,0h0
		c0-5.5-1.5-10.5-4.5-14.9l0,0c0,0,0,0,0,0c0,0,0,0,0,0l0,0c-3-4.5-7.2-7.9-12.4-10.5C51.5,1.2,45.4,0,38.6,0
		c-6.7,0-12.9,1.2-18.4,3.8l0,0c0,0,0,0,0,0s0,0,0,0l0,0c-5.5,2.5-9.9,6-13.2,10.6c-3.4,4.6-5.1,10-5.2,15.9l3,0.1v0l-3-0.1
		l-0.1,3.1h3.1h18.9h2.9l0.1-2.9c0.1-1.8,0.6-3.3,1.5-4.5c1-1.3,2.3-2.3,4.1-3.1l0,0l0,0L31.2,20l0,0l1.2,2.7
		c1.8-0.8,3.8-1.2,6.1-1.2c2.3,0,4.1,0.4,5.6,1.2l1.4-2.7l0,0l-1.4,2.7l0,0l0,0c1.5,0.8,2.6,1.8,3.4,3.1l2.6-1.6l0,0l-2.6,1.6l0,0
		l0,0c0.8,1.2,1.2,2.7,1.2,4.5c0,1.9-0.5,3.4-1.4,4.7c-0.9,1.3-2.3,2.4-4.1,3.2l0,0l0,0l1.2,2.7l0,0l-1.2-2.7
		c-1.8,0.8-4,1.3-6.6,1.3H28h-3v3v14.5v3h3h8.7c3.2,0,5.8,0.5,7.9,1.4l1.2-2.8l-1.2,2.8c2.2,0.9,3.6,2.1,4.6,3.5l0,0l0,0l2.4-1.8
		l0,0l-2.4,1.8c1,1.4,1.5,2.9,1.5,4.8c0,1.9-0.5,3.5-1.4,4.8c-1,1.4-2.3,2.5-4.2,3.4c-1.8,0.8-4.1,1.3-6.7,1.3
		c-2.6,0-4.7-0.4-6.6-1.2c-1.9-0.8-3.3-1.8-4.3-3.1c-1-1.2-1.5-2.6-1.6-4.3L25.7,68h-2.8H3.1H0l0.1,3.1c0.1,6,1.8,11.4,5.3,16.1
		l2.4-1.8l0,0l-2.4,1.8l0,0l0,0c3.4,4.6,8,8.1,13.7,10.7l0,0l0,0l1.2-2.7l0,0L19,97.9c5.7,2.5,12.2,3.8,19.3,3.8
		c7.3,0,13.9-1.2,19.7-3.8c5.8-2.5,10.5-6.1,13.9-10.7l0,0c0,0,0,0,0,0c0,0,0,0,0,0l0,0C75.5,82.5,77.2,77.2,77.2,71.2L77.2,71.2
		C77.2,71.2,77.2,71.2,77.2,71.2C77.2,71.2,77.2,71.2,77.2,71.2z M65.9,42.3l-0.7-0.7L65.9,42.3L65.9,42.3z M71.2,71.2
		c0,4.7-1.3,8.7-4,12.3l0,0l0,0c-2.7,3.6-6.5,6.6-11.5,8.8c-5,2.2-10.7,3.3-17.3,3.3c-6.4,0-12.1-1.1-16.9-3.2
		c-4.9-2.2-8.6-5.1-11.3-8.8c-2.1-2.8-3.3-6-3.9-9.6h14c0.5,1.8,1.3,3.4,2.4,4.9l0,0l0,0c1.8,2.1,4,3.7,6.7,4.8
		c2.7,1.1,5.7,1.6,8.9,1.6c3.4,0,6.4-0.6,9.2-1.9c2.7-1.3,5-3.1,6.6-5.4c1.7-2.4,2.5-5.2,2.5-8.2c0-3.1-0.9-5.9-2.6-8.3l0,0
		c0,0,0,0,0,0c0,0,0,0,0,0l0,0c-1.7-2.4-4.2-4.3-7.1-5.5l0,0c0,0,0,0,0,0c0,0,0,0,0,0l0,0c-3-1.3-6.4-1.9-10.3-1.9H31v-8.5h5.7
		c3.3,0,6.4-0.6,9.1-1.8l0,0c0,0,0,0,0,0c0,0,0,0,0,0l0,0c2.7-1.2,5-3,6.6-5.3l0,0l0,0c1.6-2.4,2.4-5.2,2.4-8.2
		c0-2.8-0.7-5.4-2.1-7.7l0,0c0,0,0,0,0,0c0,0,0,0,0,0l0,0c-1.4-2.3-3.4-4-5.8-5.2l0,0c0,0,0,0,0,0c0,0,0,0,0,0l0,0
		c-2.5-1.2-5.2-1.8-8.3-1.8c-3,0-5.9,0.6-8.5,1.7l0,0c0,0,0,0,0,0c0,0,0,0,0,0l0,0c-2.6,1.1-4.8,2.8-6.5,5c-1.1,1.5-1.9,3.2-2.3,5
		h-13c0.5-3.5,1.8-6.6,3.8-9.4c2.6-3.6,6.2-6.5,10.8-8.6l0,0C27.4,7.1,32.7,6,38.6,6c6.1,0,11.2,1.1,15.6,3.2
		c4.4,2.1,7.7,4.9,10,8.4l0,0l0,0c2.3,3.4,3.5,7.2,3.5,11.6l0,0l0,0l3,0l0,0l-3,0c0,4.5-1.4,8.1-4.1,11l0,0l0,0
		c-2.8,3-6.4,4.9-11,5.7l0.5,3h0l-0.5-3l-2.5,0.4v2.5v0.7v2.6l2.6,0.3l0.4-3h0l-0.4,3c6.4,0.8,10.8,3,13.8,6.2l2.2-2l0,0l-2.2,2l0,0
		l0,0C69.7,62.1,71.2,66.1,71.2,71.2l3,0L71.2,71.2z"/>
	<polygon class="st0" points="44.6,61.5 44.6,61.5 45.7,58.8 	"/>
</g>
</svg>
