<?xml version="1.0" encoding="utf-8"?>
<!-- Generator: Adobe Illustrator 25.0.1, SVG Export Plug-In . SVG Version: 6.00 Build 0)  -->
<svg version="1.1" id="Layer_1" xmlns="http://www.w3.org/2000/svg" xmlns:xlink="http://www.w3.org/1999/xlink" x="0px" y="0px"
	 viewBox="0 0 81 99.1" style="enable-background:new 0 0 81 99.1;" xml:space="preserve">
<style type="text/css">
	.st0{fill:#981B46;}
</style>
<g>
	<path class="st0" d="M78,61h-8.5V3V2V0h-3h-8.3h-3H48h-3h-3.2h-1.6l-0.9,1.4L41.9,3l0,0l-2.5-1.6L0.5,62.6L3,64.2h0l-2.5-1.6
		L0,63.4v0.9v15.5v3h0.5H3h41.7v13.4v3h3h18.8h3v-3V82.7H78h0.6H81v-3V64v-3H78z M63.5,93.1H50.7V82.7v-4.1v-1.9H6V65.1L43.5,6H48
		h7.2h8.3v61h5.1h0.9H75v9.8H63.5v5.4v0.6V93.1z"/>
	<path class="st0" d="M50.7,21.5h-3.4h-1.1h-0.6l-0.9,1.4l0.7,0.5l0,0l-0.7-0.5L20.3,61.6l2.5,1.6v0l-2.5-1.6l-0.5,0.7v0.9V64v3h3
		h27.9v-6h0V21.5z M44.7,61H27.8l16.9-26.7V61z"/>
</g>
</svg>
