<?xml version="1.0" encoding="utf-8"?>
<!-- Generator: Adobe Illustrator 25.0.1, SVG Export Plug-In . SVG Version: 6.00 Build 0)  -->
<svg version="1.1" id="Layer_1" xmlns="http://www.w3.org/2000/svg" xmlns:xlink="http://www.w3.org/1999/xlink" x="0px" y="0px"
	 viewBox="0 0 74.5 100.4" style="enable-background:new 0 0 74.5 100.4;" xml:space="preserve">
<style type="text/css">
	.st0{fill:#981B46;}
</style>
<g>
	<path class="st0" d="M74.5,65.1C74.5,65.1,74.5,65.1,74.5,65.1C74.5,65,74.5,65,74.5,65.1L74.5,65.1c0-6.4-1.3-12.2-4.1-17.3l0,0
		c0,0,0,0,0,0c0,0,0,0,0,0l0,0c-2.8-5.1-6.6-9.1-11.5-12c-4.9-2.9-10.4-4.4-16.5-4.4c-4.5,0-8.6,0.8-12.3,2.5c-1.1,0.5-2,1-3,1.6
		l1.4-13.5h38h3v-3V3V0h-3H9.5H6.7L6.5,2.7l3,0.3l0,0l-3-0.3L2.1,51.8l-0.2,2.7L4.5,55L22,58.2l1.8,0.3L25,57l-2.4-1.8v0L25,57
		c1.1-1.5,2.6-2.7,4.7-3.6c2.2-1,4.4-1.4,6.7-1.4c2.7,0,4.9,0.6,6.8,1.7c1.9,1.1,3.4,2.7,4.5,4.7l0,0l0,0l2.6-1.5l0,0l-2.6,1.5
		c1.1,2,1.7,4.3,1.7,7.2c0,2.8-0.6,5.1-1.7,7.1l2.6,1.4l0,0l-2.6-1.4l0,0c-1.1,2-2.5,3.5-4.5,4.6c-1.8,1.1-4,1.6-6.7,1.6
		c-3.3,0-5.9-0.9-8.2-2.7c-2.1-1.7-3.3-3.8-3.4-6.6l-3,0.2l0,0l3-0.2L25,66.8h-2.8H3.1H0l0.1,3.1c0.1,5.9,1.8,11.3,5.1,15.9
		c3.3,4.6,7.7,8.2,13.1,10.8l0,0l1.3-2.7l0,0l-1.3,2.7c5.5,2.6,11.7,3.8,18.5,3.8c7.3,0,13.9-1.5,19.6-4.5l-1.4-2.7l1.4,2.7
		c5.7-3,10.2-7.2,13.4-12.6l0,0c0,0,0,0,0,0c0,0,0,0,0,0l0,0C73,77.9,74.6,71.8,74.5,65.1L74.5,65.1z M68.5,65.1
		c0,5.8-1.3,10.8-3.9,15.2l2.6,1.6l0,0l-2.6-1.5l0,0C62,84.6,58.3,88,53.5,90.6c-4.7,2.5-10.3,3.8-16.8,3.8
		c-6.1,0-11.3-1.1-15.9-3.3c-4.6-2.2-8.1-5.1-10.7-8.8c-2-2.8-3.3-6-3.8-9.5h13.3c0.8,3.2,2.5,6,5.2,8.1c3.4,2.7,7.4,4,11.9,4
		c3.5,0,6.8-0.8,9.7-2.4l-1.5-2.6l0,0l1.5,2.6l0,0c2.9-1.7,5.1-4,6.7-6.9l0,0c0,0,0,0,0,0c0,0,0,0,0,0l0,0c1.6-3,2.4-6.3,2.4-10
		c0-3.7-0.8-7.1-2.5-10.1l0,0c0,0,0,0,0,0c0,0,0,0,0,0l0,0c-1.6-2.9-3.9-5.3-6.8-7c-2.9-1.7-6.2-2.5-9.8-2.5l0,3v0l0-3l0,0h0
		c-3.2,0-6.2,0.7-9.2,1.9l0,0l0,0c-2.3,1-4.3,2.4-5.9,4.1L8.3,49.6L12.2,6h51.2v10.1H25.7H23l-0.3,2.7l-2.4,23.3L20,45.4h3.3h0.5
		h1.5l0.9-1.3c1.3-1.8,3.3-3.4,6.2-4.7c2.9-1.3,6.1-2,9.8-2c5.1,0,9.6,1.2,13.5,3.5c3.9,2.4,7,5.6,9.3,9.7l2.6-1.5l0,0l-2.6,1.4l0,0
		C67.4,54.8,68.6,59.5,68.5,65.1L68.5,65.1L68.5,65.1l3,0l0,0L68.5,65.1z"/>
	<polygon class="st0" points="56.3,95.9 56.3,95.9 54.9,93.2 	"/>
</g>
</svg>
