<?xml version="1.0" encoding="utf-8"?>
<!-- Generator: Adobe Illustrator 25.0.1, SVG Export Plug-In . SVG Version: 6.00 Build 0)  -->
<svg version="1.1" id="Layer_1" xmlns="http://www.w3.org/2000/svg" xmlns:xlink="http://www.w3.org/1999/xlink" x="0px" y="0px"
	 viewBox="0 0 78 101.6" style="enable-background:new 0 0 78 101.6;" xml:space="preserve">
<style type="text/css">
	.st0{fill:#981B46;}
</style>
<path class="st0" d="M40.2,98.6l0,3h0L40.2,98.6z M26.3,96.2l-1,2.8l0,0L26.3,96.2z M14.4,88.5l-2.1,2.1L14.4,88.5z M6,74.5l-2.8,1
	l0,0L6,74.5z M3,52.9l-3,0v0H3z M5.7,32l-2.9-0.8l0,0L5.7,32z M13.3,16.2l-2.4-1.8l0,0L13.3,16.2z M25.3,6.4l1.3,2.7l0,0l0,0
	L25.3,6.4z M57.3,6.6L56,9.3l0,0l0,0L57.3,6.6z M68.8,16.4l-2.5,1.7l0,0l0,0L68.8,16.4z M74,30.3v3h3.4L77,29.9L74,30.3z M54.6,30.3
	L51.7,31l0.5,2.3h2.4V30.3z M27,27.8l-2.6-1.5l0,0L27,27.8z M22.3,49.3l-3,0l0,3h3V49.3z M22.9,49.3v3h1.8l0.8-1.6L22.9,49.3z
	 M28.5,42.2l1.9,2.3l0,0L28.5,42.2z M36.7,37.7l1,2.8l0,0l0,0L36.7,37.7z M61.1,40l-1.6,2.6l0,0l0,0L61.1,40z M70.6,83L68,81.5l0,0
	L70.6,83z M58.4,94.5l1.4,2.7l0,0L58.4,94.5z M48.2,81l1.6,2.6L48.2,81z M53.9,75.1l2.6,1.4L53.9,75.1z M53.9,58.4l-2.6,1.4l0,0l0,0
	L53.9,58.4z M48.3,52.5l1.6-2.6l0,0L48.3,52.5z M33.9,51.6l-1.2-2.7l0,0l0,0L33.9,51.6z M28.9,55.2l-2.2-2.1l0,0l0,0L28.9,55.2z
	 M25.5,60.5l2.8,1.2l0,0l0,0L25.5,60.5z M26.3,75l-2.6,1.4l0,0l0,0L26.3,75z M32,81l-1.6,2.5l0,0l0,0L32,81z M40.2,95.6
	c-4.5,0-8.7-0.8-12.9-2.2l-2,5.7c4.8,1.7,9.7,2.5,14.8,2.6L40.2,95.6z M27.3,93.4c-4-1.4-7.6-3.7-10.8-7l-4.3,4.2
	c3.8,3.8,8.2,6.7,13,8.4L27.3,93.4z M16.5,86.4c-3.1-3.2-5.7-7.4-7.7-13l-5.7,2c2.2,6.2,5.2,11.3,9.1,15.2L16.5,86.4z M8.9,73.5
	C7,68,6,61.2,6,52.9H0c0,8.7,1,16.3,3.2,22.5L8.9,73.5z M6,52.9c0-7.6,0.9-14.3,2.6-20.1l-5.8-1.6C0.9,37.6,0,44.9,0,52.9L6,52.9z
	 M8.6,32.8c1.7-5.9,4.1-10.8,7.1-14.7l-4.8-3.7c-3.6,4.6-6.3,10.2-8.1,16.7L8.6,32.8z M15.7,18.1c3.1-4,6.7-6.9,10.9-9L24,3.7
	c-5.1,2.5-9.4,6-13,10.7L15.7,18.1z M26.6,9.1c4.2-2,8.9-3.1,14.3-3.1V0C34.7,0,29,1.2,24,3.7L26.6,9.1z M40.9,6
	C46.7,6,51.7,7.1,56,9.3L58.7,4c-5.2-2.7-11.2-4-17.8-4V6z M56,9.3c4.3,2.2,7.8,5.1,10.3,8.8l4.9-3.4C68.1,10.1,63.8,6.6,58.7,4
	L56,9.3z M66.3,18.1c2.6,3.7,4.2,7.8,4.7,12.5l6-0.7c-0.7-5.6-2.6-10.7-5.8-15.2L66.3,18.1z M74,27.3H54.6v6H74V27.3z M57.6,29.6
	c-0.9-3.9-2.8-7-5.9-9.3L48,25c1.8,1.4,3.1,3.3,3.7,5.9L57.6,29.6z M51.7,20.3c-3-2.3-6.7-3.4-10.8-3.4v6c3,0,5.4,0.8,7.2,2.2
	L51.7,20.3z M40.9,16.9c-7.1,0-12.7,3.2-16.4,9.4l5.2,3.1c2.6-4.4,6.3-6.4,11.2-6.4V16.9z M24.5,26.2c-3.5,5.9-5.1,13.7-5.2,23l6,0
	c0.1-8.8,1.6-15.3,4.4-20L24.5,26.2z M22.3,52.3h0.6v-6h-0.6V52.3z M25.6,50.6c1.2-2.4,2.8-4.4,4.9-6.1l-3.8-4.6
	c-2.7,2.2-4.8,4.9-6.4,8L25.6,50.6z M30.5,44.5c2.1-1.7,4.5-3.1,7.2-4l-1.9-5.7c-3.4,1.1-6.4,2.8-9.1,5L30.5,44.5z M37.7,40.6
	c2.7-0.9,5.6-1.4,8.7-1.4v-6c-3.7,0-7.3,0.6-10.7,1.8L37.7,40.6z M46.4,39.1c5,0,9.4,1.2,13.2,3.5l3.1-5.1
	c-4.8-2.9-10.3-4.3-16.3-4.3V39.1z M59.6,42.6c3.8,2.3,6.9,5.4,9.1,9.5l5.3-2.9c-2.7-5-6.5-8.9-11.3-11.8L59.6,42.6z M68.6,52.1
	c2.2,4,3.4,8.7,3.4,14.1h6c0-6.3-1.3-11.9-4.1-16.9L68.6,52.1z M72,66.2c0,5.8-1.4,10.9-4,15.3l5.1,3.1C76.4,79.1,78,73,78,66.2H72z
	 M68,81.5c-2.6,4.4-6.3,7.9-11.1,10.4l2.8,5.3c5.7-3,10.2-7.3,13.4-12.7L68,81.5z M57,91.9c-4.7,2.5-10.3,3.8-16.8,3.7l0,6
	c7.3,0,13.9-1.4,19.6-4.4L57,91.9z M40.1,86.2c3.5,0,6.8-0.9,9.7-2.6l-3.1-5.1c-1.9,1.1-4.1,1.7-6.6,1.7V86.2z M49.8,83.6
	c2.8-1.7,5.1-4.1,6.7-7l-5.3-2.9c-1.1,2-2.6,3.6-4.6,4.8L49.8,83.6z M56.5,76.5c1.6-3,2.4-6.3,2.4-9.8h-6c0,2.6-0.6,4.9-1.7,6.9
	L56.5,76.5z M58.9,66.7c0-3.5-0.8-6.8-2.4-9.8l-5.2,2.9c1.1,2,1.7,4.2,1.7,6.9H58.9z M56.5,57c-1.6-2.9-3.8-5.3-6.6-7l-3.1,5.1
	c1.9,1.2,3.4,2.7,4.5,4.7L56.5,57z M49.9,50c-2.9-1.8-6.1-2.6-9.7-2.6v6c2.5,0,4.7,0.6,6.5,1.7L49.9,50z M40.2,47.4
	c-2.7,0-5.2,0.5-7.5,1.5l2.4,5.5c1.5-0.7,3.2-1,5.1-1V47.4z M32.7,48.9c-2.3,1-4.3,2.4-6,4.2l4.3,4.2c1.2-1.2,2.5-2.2,4.1-2.9
	L32.7,48.9z M26.7,53.1c-1.7,1.8-3,3.9-4,6.2l5.6,2.3c0.7-1.7,1.6-3.1,2.8-4.4L26.7,53.1z M22.7,59.3c-1,2.4-1.5,4.9-1.5,7.5h6
	c0-1.9,0.3-3.6,1-5.2L22.7,59.3z M21.3,66.8c0,3.5,0.8,6.7,2.4,9.7l5.3-2.9c-1.1-2-1.7-4.3-1.7-6.8H21.3z M23.7,76.5
	c1.6,2.9,3.9,5.3,6.7,7l3.2-5.1c-1.9-1.2-3.5-2.8-4.6-4.9L23.7,76.5z M30.4,83.5c2.9,1.8,6.2,2.7,9.7,2.7v-6c-2.5,0-4.7-0.6-6.6-1.8
	L30.4,83.5z"/>
</svg>
