<?xml version="1.0" encoding="utf-8"?>
<!-- Generator: Adobe Illustrator 25.0.1, SVG Export Plug-In . SVG Version: 6.00 Build 0)  -->
<svg version="1.1" id="Layer_1" xmlns="http://www.w3.org/2000/svg" xmlns:xlink="http://www.w3.org/1999/xlink" x="0px" y="0px"
	 viewBox="0 0 75 75" style="enable-background:new 0 0 75 75;" xml:space="preserve">
<style type="text/css">
	.st0{fill:#981B46;}
</style>
<g>
	<g>
		<path class="st0" d="M12.3,58.4c-3.6,0-7.4-2.2-9.5-5.9c-3-5.3-1.8-11.7,2.9-14.4l13.1-7.6l1,1.7L6.7,39.9C3,42,2,47.2,4.5,51.5
			s7.5,6.1,11.2,4L28.8,48l1,1.7l-13.1,7.6C15.4,58.1,13.9,58.4,12.3,58.4z"/>
	</g>
	<g>
		<path class="st0" d="M30.1,73.3c-0.4,0-0.8,0-1.1-0.2c-1.1-0.3-2.1-1-2.7-2l-9-15.5l1.7-1l9,15.5c0.3,0.5,0.8,0.9,1.4,1.1
			s1.3,0.1,1.8-0.2s0.9-0.8,1.1-1.4s0.1-1.3-0.2-1.8l-9-15.5l1.7-1l9,15.5c0.6,1,0.7,2.2,0.4,3.3c-0.3,1.1-1,2.1-2,2.7
			C31.6,73.1,30.8,73.3,30.1,73.3z"/>
	</g>
	<g>
		<polygon class="st0" points="28.9,49.8 18.2,31.4 34.9,6.8 36.6,7.9 20.5,31.4 30,47.7 58.4,45.6 58.5,47.6 		"/>
	</g>
	<g>
		<path class="st0" d="M58.8,47.8c-0.5,0-1-0.3-1.3-0.9L35,8.1c-0.3-0.5-0.3-1.2-0.1-1.6s0.6-0.6,1.1-0.6l0,0L38.3,6
			c2,0.1,4.1,1.7,5.6,4.1l16.2,28.1c1.4,2.4,1.7,5.1,0.8,6.9l-1.1,2.1C59.7,47.5,59.3,47.7,58.8,47.8L58.8,47.8z M37.2,7.9
			l21.5,37.2l0.5-0.9c0.6-1.1,0.3-3.1-0.8-4.9L42.2,11.1c-1-1.8-2.6-3.1-3.9-3.1L37.2,7.9z M36,7.8L36,7.8L36,7.8z"/>
	</g>
	<g>
		<path class="st0" d="M55.4,30.9L53.6,30l2.2-4.5c0.4-0.9,0.5-1.7,0.1-2.3l-1.1-2c-0.4-0.6-1.1-1-2.1-1.1l-5-0.4l0.1-2l5,0.4
			c1.6,0.1,3,0.9,3.7,2.1l1.1,2c0.7,1.2,0.7,2.7-0.1,4.2L55.4,30.9z"/>
	</g>
	<g>
		<polygon class="st0" points="27.6,58.9 26.6,57.2 31.4,54.4 28.4,49.2 30.1,48.2 34.1,55.1 		"/>
	</g>
	<g>
		<g>
			
				<rect x="57.4" y="16.9" transform="matrix(0.8661 -0.4999 0.4999 0.8661 -0.5472 33.7236)" class="st0" width="10.5" height="2"/>
		</g>
		<g>
			
				<rect x="54.9" y="1.7" transform="matrix(0.9999 -1.647543e-02 1.647543e-02 0.9999 -0.1465 0.9223)" class="st0" width="2" height="15.3"/>
		</g>
		<g>
			<rect x="65.8" y="20.5" transform="matrix(0.5142 -0.8577 0.8577 0.5142 8.3538 70.9632)" class="st0" width="2" height="15.3"/>
		</g>
	</g>
</g>
</svg>
