<?xml version="1.0" encoding="utf-8"?>
<!-- Generator: Adobe Illustrator 25.0.1, SVG Export Plug-In . SVG Version: 6.00 Build 0)  -->
<svg version="1.1" xmlns="http://www.w3.org/2000/svg" xmlns:xlink="http://www.w3.org/1999/xlink" x="0px" y="0px"
	 viewBox="0 0 75 75" style="enable-background:new 0 0 75 75;" xml:space="preserve">
<style type="text/css">
	.st0{display:none;}
	.st1{display:inline;opacity:0.1;fill:#231F20;}
	.st2{display:inline;opacity:0.1;fill:#FFF962;}
	.st3{fill:#981B46;}
	.st4{fill:#FFFFFF;}
	.st5{fill:none;stroke:#981B46;stroke-width:4;stroke-linecap:round;stroke-miterlimit:10;}
	.st6{fill:none;stroke:#981B46;stroke-width:2;stroke-linecap:round;stroke-miterlimit:10;}
	.st7{fill:none;stroke:#981B46;stroke-width:3;stroke-miterlimit:10;}
	.st8{fill:none;stroke:#981B46;stroke-width:2;stroke-miterlimit:10;}
	.st9{fill:none;stroke:#981B46;stroke-width:2.1414;stroke-linecap:round;stroke-miterlimit:10;}
</style>
<g id="Layer_1">
</g>
<g id="Layer_2" class="st0">
</g>
<g id="Layer_3">
	<g>
		<g>
			<g>
				<path class="st3" d="M48.6,53.6c-0.6,0-1-0.4-1-1V41.7c0-0.6,0.4-1,1-1s1,0.4,1,1v10.9C49.6,53.1,49.2,53.6,48.6,53.6z"/>
			</g>
			<g>
				<path class="st3" d="M26.4,53.6c-0.6,0-1-0.4-1-1V41.7c0-0.6,0.4-1,1-1s1,0.4,1,1v10.9C27.4,53.1,27,53.6,26.4,53.6z"/>
			</g>
		</g>
		<g>
			<path class="st3" d="M63.5,47.5H11.5c-5.1,0-9.3-4.2-9.3-9.3v-9.3c0-5.1,4.2-9.3,9.3-9.3h51.9c5.1,0,9.3,4.2,9.3,9.3v9.3
				C72.8,43.3,68.6,47.5,63.5,47.5z M11.5,21.6c-4,0-7.3,3.3-7.3,7.3v9.3c0,4,3.3,7.3,7.3,7.3h51.9c4,0,7.3-3.3,7.3-7.3v-9.3
				c0-4-3.3-7.3-7.3-7.3H11.5z"/>
		</g>
		<g>
			<path class="st3" d="M49.4,21.2c-0.6,0-1-0.4-1-1v-8.6c0-0.6-0.5-1-1-1H27.6c-0.6,0-1,0.5-1,1v8.4c0,0.6-0.4,1-1,1s-1-0.4-1-1
				v-8.4c0-1.7,1.4-3,3-3h19.7c1.7,0,3,1.4,3,3v8.6C50.4,20.8,49.9,21.2,49.4,21.2z"/>
		</g>
		<g>
			<path class="st3" d="M65.8,66.4H9.2c-1.7,0-3.1-1.4-3.1-3.1V46.9c0-0.6,0.4-1,1-1s1,0.4,1,1v16.4c0,0.6,0.5,1.1,1.1,1.1h56.7
				c0.6,0,1.1-0.5,1.1-1.1V46.9c0-0.6,0.4-1,1-1s1,0.4,1,1v16.4C68.9,65,67.5,66.4,65.8,66.4z"/>
		</g>
	</g>
</g>
</svg>
