<?xml version="1.0" encoding="utf-8"?>
<!-- Generator: Adobe Illustrator 25.0.1, SVG Export Plug-In . SVG Version: 6.00 Build 0)  -->
<svg version="1.1" xmlns="http://www.w3.org/2000/svg" xmlns:xlink="http://www.w3.org/1999/xlink" x="0px" y="0px"
	 viewBox="0 0 75 75" style="enable-background:new 0 0 75 75;" xml:space="preserve">
<style type="text/css">
	.st0{display:none;}
	.st1{display:inline;opacity:0.1;fill:#231F20;}
	.st2{display:inline;opacity:0.1;fill:#FFF962;}
	.st3{fill:#981B46;}
	.st4{fill:#FFFFFF;}
	.st5{fill:none;stroke:#981B46;stroke-width:4;stroke-linecap:round;stroke-miterlimit:10;}
	.st6{fill:none;stroke:#981B46;stroke-width:2;stroke-linecap:round;stroke-miterlimit:10;}
	.st7{fill:none;stroke:#981B46;stroke-width:3;stroke-miterlimit:10;}
	.st8{fill:none;stroke:#981B46;stroke-width:2;stroke-miterlimit:10;}
	.st9{fill:none;stroke:#981B46;stroke-width:2.1414;stroke-linecap:round;stroke-miterlimit:10;}
</style>
<g id="Layer_1">
</g>
<g id="Layer_2" class="st0">
</g>
<g id="Layer_3">
	<g>
		<g>
			<g>
				<path class="st3" d="M55.6,69.3c-0.6,0-1-0.4-1-1v-4.7c0-8.1-7.7-14.7-17.1-14.7s-17.1,6.6-17.1,14.7v4.7c0,0.6-0.4,1-1,1
					s-1-0.4-1-1v-4.7c0-9.2,8.6-16.7,19.1-16.7s19.1,7.5,19.1,16.7v4.7C56.6,68.9,56.1,69.3,55.6,69.3z"/>
			</g>
			<g>
				<path class="st3" d="M37.5,47.6c-6.3,0-11.5-5.2-11.5-11.5s5.2-11.5,11.5-11.5S49,29.8,49,36.1S43.8,47.6,37.5,47.6z M37.5,26.6
					c-5.2,0-9.5,4.3-9.5,9.5c0,5.2,4.3,9.5,9.5,9.5c5.2,0,9.5-4.3,9.5-9.5C47,30.9,42.7,26.6,37.5,26.6z"/>
			</g>
		</g>
		<g>
			<g>
				<path class="st3" d="M73.1,42.1c-0.6,0-1-0.4-1-1v-3.8c0-6.5-6.1-11.7-13.6-11.7c-3.5,0-6.8,1.1-9.3,3.2
					c-0.4,0.4-1.1,0.3-1.4-0.1c-0.4-0.4-0.3-1.1,0.1-1.4c2.9-2.4,6.7-3.7,10.6-3.7c8.6,0,15.6,6.1,15.6,13.7v3.8
					C74.1,41.7,73.6,42.1,73.1,42.1z"/>
			</g>
			<g>
				<path class="st3" d="M58.5,24.6c-5.2,0-9.5-4.2-9.5-9.5s4.2-9.5,9.5-9.5S68,9.9,68,15.2S63.7,24.6,58.5,24.6z M58.5,7.7
					c-4.1,0-7.5,3.4-7.5,7.5s3.4,7.5,7.5,7.5s7.5-3.3,7.5-7.5S62.6,7.7,58.5,7.7z"/>
			</g>
		</g>
		<g>
			<g>
				<path class="st3" d="M1.9,42.1c-0.6,0-1-0.4-1-1v-3.8c0-7.6,7-13.7,15.6-13.7c3.9,0,7.7,1.3,10.6,3.7c0.4,0.4,0.5,1,0.1,1.4
					c-0.3,0.4-1,0.5-1.4,0.1c-2.5-2.1-5.8-3.2-9.3-3.2C9,25.6,2.9,30.9,2.9,37.4v3.8C2.9,41.7,2.5,42.1,1.9,42.1z"/>
			</g>
			<g>
				<path class="st3" d="M16.5,24.6c-5.2,0-9.5-4.2-9.5-9.5s4.2-9.5,9.5-9.5S26,9.9,26,15.2S21.7,24.6,16.5,24.6z M16.5,7.7
					C12.4,7.7,9,11,9,15.2s3.3,7.5,7.5,7.5s7.5-3.3,7.5-7.5S20.6,7.7,16.5,7.7z"/>
			</g>
		</g>
	</g>
</g>
</svg>
