<?xml version="1.0" encoding="utf-8"?>
<!-- Generator: Adobe Illustrator 25.0.1, SVG Export Plug-In . SVG Version: 6.00 Build 0)  -->
<svg version="1.1" xmlns="http://www.w3.org/2000/svg" xmlns:xlink="http://www.w3.org/1999/xlink" x="0px" y="0px"
	 viewBox="0 0 75 75" style="enable-background:new 0 0 75 75;" xml:space="preserve">
<style type="text/css">
	.st0{display:none;}
	.st1{display:inline;opacity:0.1;fill:#231F20;}
	.st2{display:inline;opacity:0.1;fill:#FFF962;}
	.st3{fill:#981B46;}
	.st4{fill:#FFFFFF;}
	.st5{fill:none;stroke:#981B46;stroke-width:4;stroke-linecap:round;stroke-miterlimit:10;}
	.st6{fill:none;stroke:#981B46;stroke-width:2;stroke-linecap:round;stroke-miterlimit:10;}
	.st7{fill:none;stroke:#981B46;stroke-width:3;stroke-miterlimit:10;}
	.st8{fill:none;stroke:#981B46;stroke-width:2;stroke-miterlimit:10;}
	.st9{fill:none;stroke:#981B46;stroke-width:2.1414;stroke-linecap:round;stroke-miterlimit:10;}
</style>
<g id="Layer_1">
</g>
<g id="Layer_2" class="st0">
</g>
<g id="Layer_3">
	<g>
		<g>
			<g>
				<path class="st3" d="M44.3,61.6h-7.7c-0.6,0-1-0.4-1-1s0.4-1,1-1h7.7c2.9,0,5.3-2.4,5.3-5.3V43.8c0-0.6,0.4-1,1-1s1,0.4,1,1
					v10.5C51.6,58.3,48.3,61.6,44.3,61.6z"/>
			</g>
			<g>
				<path class="st3" d="M10.9,55.3c-0.6,0-1-0.4-1-1v-39c0-4,3.3-7.3,7.3-7.3h27.1c4,0,7.3,3.3,7.3,7.3v12c0,0.6-0.4,1-1,1
					s-1-0.4-1-1v-12c0-2.9-2.4-5.3-5.3-5.3H17.2c-2.9,0-5.3,2.4-5.3,5.3v39C11.9,54.8,11.5,55.3,10.9,55.3z"/>
			</g>
		</g>
		<g>
			<path class="st3" d="M33.3,67c-0.4,0-0.8-0.1-1.2-0.2L14.6,61c-0.5-0.2-0.8-0.7-0.6-1.3c0.2-0.5,0.7-0.8,1.3-0.6l17.5,5.8
				c0.5,0.2,1,0.1,1.4-0.2c0.8-0.6,1.3-2,1.3-3.6V23c0-2.9-1.6-6-3.4-6.6l-17.4-6c-0.5-0.2-0.8-0.7-0.6-1.3c0.2-0.5,0.7-0.8,1.3-0.6
				l17.4,6c2.7,0.9,4.7,4.6,4.7,8.5v38c0,2.4-0.8,4.3-2.2,5.3C34.7,66.8,34,67,33.3,67z"/>
		</g>
		<g>
			<path class="st3" d="M59.2,35.8H40.5c-0.6,0-1-0.4-1-1s0.4-1,1-1h18.7c0.6,0,1,0.4,1,1S59.8,35.8,59.2,35.8z"/>
		</g>
		<g>
			<path class="st3" d="M57.1,43.4c-0.3,0-0.5-0.1-0.7-0.3c-0.4-0.4-0.4-1,0-1.4l6.6-6.6c0.2-0.2,0.2-0.5,0-0.6l-6.6-6.6
				c-0.4-0.4-0.4-1,0-1.4s1-0.4,1.4,0l6.6,6.6c1,1,1,2.5,0,3.5l-6.6,6.6C57.6,43.3,57.4,43.4,57.1,43.4z"/>
		</g>
	</g>
</g>
</svg>
