<?xml version="1.0" encoding="utf-8"?>
<!-- Generator: Adobe Illustrator 25.0.1, SVG Export Plug-In . SVG Version: 6.00 Build 0)  -->
<svg version="1.1" id="Layer_1" xmlns="http://www.w3.org/2000/svg" xmlns:xlink="http://www.w3.org/1999/xlink" x="0px" y="0px"
	 viewBox="0 0 75 75" style="enable-background:new 0 0 75 75;" xml:space="preserve">
<style type="text/css">
	.st0{fill:#981B46;}
</style>
<g>
	<g>
		<path class="st0" d="M39.1,63.5c-0.5,0-0.9-0.3-1-0.8l-1.7-9c-0.2-0.9-0.7-1.7-1.5-2.2c-0.6-0.4-0.8-0.5-1-0.6
			c-0.2,0-0.4-0.1-0.6-0.3c-0.4-0.4-0.4-1,0-1.4c0.7-0.7,1.4-0.2,2.6,0.6c1.2,0.8,2.1,2.1,2.3,3.5l1.7,9
			C40,62.8,39.6,63.4,39.1,63.5C39.2,63.5,39.1,63.5,39.1,63.5z M34.8,50.7L34.8,50.7L34.8,50.7z M34.8,50.7L34.8,50.7L34.8,50.7z
			 M34.8,50.7L34.8,50.7L34.8,50.7z"/>
	</g>
	<g>
		<path class="st0" d="M43.8,64c-0.6,0-1-0.4-1-1c0-1.1-0.9-7.1-1.4-10.8l-0.2-1.5c-0.2-1.1-0.9-2.1-2-2.6
			c-17.9-7.6-15.7-16.9-15.6-17.3l0.1-0.5l0.5-0.2c0.6-0.2,1.7-0.9,1.8-1.6c0.1-0.5-0.4-1.1-1.3-1.8c-1.4-1.1-3.1-3.7-4.2-5.7
			c-0.3-0.6-0.4-1.3-0.2-1.9c0.2-0.6,0.7-1,1.3-1.2c1.8-0.6,1.5-2.8,1.4-3v-0.2V7.3c0-0.7-0.3-1.4-0.8-1.9c-1.1-1-2.8-2.2-5.3-1.7
			c-3.8,0.7-4.2,2-4.2,9.2c0,7.6-2.8,8.2-3.4,8.3l-0.2-2c0,0,0,0-0.1,0c0.5-0.1,1.7-1.5,1.7-6.3c0-6.5,0-10.2,5.8-11.2
			c2.6-0.5,5.1,0.4,7,2.3c0.9,0.9,1.4,2.1,1.4,3.3v7.3c0.2,1.5,0,4.4-2.8,5.2c-0.1,0.1-0.1,0.1,0,0.2c1.5,2.5,2.8,4.4,3.7,5.1
			c1.5,1.2,2.2,2.4,2,3.7c-0.2,1.6-1.7,2.5-2.5,3c-0.1,1.8,0.5,8.6,14.5,14.5c1.7,0.7,2.9,2.3,3.2,4.1l0.2,1.5
			c0.8,5.2,1.5,9.9,1.5,11C44.8,63.5,44.4,64,43.8,64z"/>
	</g>
	<g>
		<path class="st0" d="M16.7,17.7c-0.5,0-0.9-0.3-1-0.8c-0.7-4.2-0.3-7.3,1.2-9.3c1.3-1.7,2.9-1.9,3-1.9c0.5-0.1,1,0.3,1.1,0.9
			c0.1,0.5-0.3,1-0.9,1.1c-0.1,0-1,0.2-1.7,1.2c-0.8,1.1-1.5,3.3-0.8,7.7c0.1,0.5-0.3,1.1-0.8,1.2C16.8,17.7,16.7,17.7,16.7,17.7z"
			/>
	</g>
	<g>
		<path class="st0" d="M10.3,46.9L10.3,46.9c-0.6,0-1-0.5-1-1c0-0.8,0.6-18.4,1.6-22.1c1.1-4.2,5.1-4.9,5.2-4.9
			c0.5-0.1,1.1,0.3,1.1,0.8c0.1,0.5-0.3,1.1-0.8,1.1c-0.1,0-2.8,0.5-3.6,3.4c-0.7,2.8-1.3,15.4-1.5,21.6
			C11.3,46.5,10.9,46.9,10.3,46.9z"/>
	</g>
	<g>
		<path class="st0" d="M15.3,47.6c-0.1,0-0.1,0-0.2,0c-0.5-0.1-0.9-0.6-0.8-1.1l3-19.8c0.1-0.5,0.6-0.9,1.1-0.8s0.9,0.6,0.8,1.1
			l-3,19.8C16.2,47.3,15.8,47.6,15.3,47.6z"/>
	</g>
	<g>
		<g>
			<g>
				<path class="st0" d="M16.1,58.2c-0.6,0-1-0.4-1-1v-1.9c0-0.6,0.4-1,1-1s1,0.4,1,1v1.9C17.1,57.7,16.6,58.2,16.1,58.2z"/>
			</g>
			<g>
				<path class="st0" d="M9.2,58.2c-0.6,0-1-0.4-1-1v-1.9c0-0.6,0.4-1,1-1s1,0.4,1,1v1.9C10.2,57.7,9.7,58.2,9.2,58.2z"/>
			</g>
		</g>
		<g>
			<path class="st0" d="M19.5,55.6H5.8c-1.9,0-3.4-1.5-3.4-3.4V49c0-1.9,1.5-3.4,3.4-3.4h13.8c1.9,0,3.4,1.5,3.4,3.4v3.2
				C22.9,54.1,21.4,55.6,19.5,55.6z M5.8,47.5c-0.8,0-1.4,0.6-1.4,1.4v3.2c0,0.8,0.6,1.4,1.4,1.4h13.8c0.8,0,1.4-0.6,1.4-1.4V49
				c0-0.8-0.6-1.4-1.4-1.4L5.8,47.5L5.8,47.5z"/>
		</g>
	</g>
	<g>
		<path class="st0" d="M13.8,65.1c-2,0-4.3-0.1-6.3-0.2c-1.8-0.1-3.3-1.2-4-2.8s-0.4-3.4,0.8-4.7L5.1,58l0.7,0.7L5.1,58l0.7,0.7
			c-0.7,0.7-0.8,1.7-0.4,2.6c0.4,0.9,1.2,1.5,2.2,1.6c5.4,0.3,9.3,0.3,10.8-0.1c0.4-0.1,1.7-0.5,1.6-2.2c0-0.9,0.5-1.7,1.3-2.1
			c8.1-3.7,13.2-10.7,13.9-13c0.2-0.5,0.7-0.8,1.3-0.7c0.5,0.2,0.8,0.7,0.7,1.3c-0.9,3-6.4,10.4-15,14.2c-0.1,0-0.1,0.1-0.1,0.2
			c0.1,2.1-1.1,3.6-3.1,4.2C17.8,65,15.9,65.1,13.8,65.1z"/>
	</g>
	<g>
		<path class="st0" d="M36.5,73.4h-34c-0.6,0-1-0.4-1-1s0.4-1,1-1h32v-9.1h13.1v-9.8h11.6v-8.9h13.3c0.6,0,1,0.4,1,1s-0.4,1-1,1
			H61.2v8.9H49.6v9.8H36.5V73.4z"/>
	</g>
	<g>
		<path class="st0" d="M15.7,73.3c-0.6,0-1-0.4-1-1v-5.4c0-0.6,0.4-1,1-1c0.6,0,1,0.4,1,1v5.4C16.7,72.9,16.2,73.3,15.7,73.3z"/>
	</g>
	<g>
		<path class="st0" d="M20.5,73c-0.6,0-1-0.4-1-1v-4.4c0-0.6,0.4-1,1-1s1,0.4,1,1V72C21.5,72.6,21.1,73,20.5,73z"/>
	</g>
</g>
</svg>
