<?xml version="1.0" encoding="utf-8"?>
<!-- Generator: Adobe Illustrator 25.0.1, SVG Export Plug-In . SVG Version: 6.00 Build 0)  -->
<svg version="1.1" id="Layer_1" xmlns="http://www.w3.org/2000/svg" xmlns:xlink="http://www.w3.org/1999/xlink" x="0px" y="0px"
	 viewBox="0 0 75 75" style="enable-background:new 0 0 75 75;" xml:space="preserve">
<style type="text/css">
	.st0{fill:#981B46;}
</style>
<g>
	<g>
		<path class="st0" d="M61,73.2H36.7c-0.6,0-1-0.4-1-1s0.4-1,1-1H59V24.4h10.6L47.7,3.9L25.8,24.4h10.9c0.6,0,1,0.4,1,1s-0.4,1-1,1
			H25c-0.7,0-1.3-0.4-1.6-1.1c-0.2-0.6-0.1-1.3,0.4-1.8L46.5,2.2c0.7-0.6,1.7-0.6,2.4,0l22.7,21.3c0.5,0.5,0.7,1.2,0.4,1.8
			c-0.3,0.6-0.9,1.1-1.6,1.1H61V73.2z"/>
	</g>
	<g>
		<g>
			<g>
				<path class="st0" d="M36.4,60.8c-0.6,0-1-0.4-1-1V52c0-0.6,0.4-1,1-1s1,0.4,1,1v7.8C37.4,60.3,37,60.8,36.4,60.8z"/>
			</g>
			<g>
				<path class="st0" d="M20.5,60.8c-0.6,0-1-0.4-1-1V52c0-0.6,0.4-1,1-1s1,0.4,1,1v7.8C21.5,60.3,21.1,60.8,20.5,60.8z"/>
			</g>
		</g>
		<g>
			<path class="st0" d="M47.1,56.5H9.9c-3.9,0-7-3.1-7-7v-6.6c0-3.9,3.1-7,7-7h37.2c3.9,0,7,3.1,7,7v6.6
				C54.1,53.3,51,56.5,47.1,56.5z M9.9,38C7.2,38,5,40.2,5,42.8v6.6c0,2.7,2.2,4.9,4.9,4.9h37.2c2.7,0,4.9-2.2,4.9-4.9v-6.6
				c0-2.7-2.2-4.9-4.9-4.9H9.9V38z"/>
		</g>
		<g>
			<path class="st0" d="M37,37.6c-0.6,0-1-0.4-1-1v-6.1c0-0.2-0.2-0.4-0.4-0.4H21.4c-0.2,0-0.4,0.2-0.4,0.4v6c0,0.6-0.4,1-1,1
				s-1-0.4-1-1v-6c0-1.3,1.1-2.4,2.4-2.4h14.1c1.3,0,2.4,1.1,2.4,2.4v6.1C38,37.2,37.6,37.6,37,37.6z"/>
		</g>
		<g>
			<path class="st0" d="M48.8,69.9H8.2c-1.4,0-2.5-1.1-2.5-2.5V55.7c0-0.6,0.4-1,1-1s1,0.4,1,1v11.7c0,0.3,0.2,0.5,0.5,0.5h40.6
				c0.3,0,0.5-0.2,0.5-0.5V55.7c0-0.6,0.4-1,1-1s1,0.4,1,1v11.7C51.3,68.8,50.2,69.9,48.8,69.9z"/>
		</g>
	</g>
</g>
</svg>
