<?xml version="1.0" encoding="utf-8"?>
<!-- Generator: Adobe Illustrator 25.0.1, SVG Export Plug-In . SVG Version: 6.00 Build 0)  -->
<svg version="1.1" id="Layer_1" xmlns="http://www.w3.org/2000/svg" xmlns:xlink="http://www.w3.org/1999/xlink" x="0px" y="0px"
	 viewBox="0 0 75 75" style="enable-background:new 0 0 75 75;" xml:space="preserve">
<style type="text/css">
	.st0{fill:#981B46;}
</style>
<g>
	<g>
		<g>
			<path class="st0" d="M27.9,18.6c-0.6,0-1-0.4-1-1v-5.4c0-0.8-0.6-1.4-1.4-1.4h-3.8c-0.8,0-1.4,0.6-1.4,1.4v5.4c0,0.6-0.4,1-1,1
				s-1-0.4-1-1v-5.4c0-1.9,1.5-3.4,3.4-3.4h3.8c1.9,0,3.4,1.5,3.4,3.4v5.4C28.9,18.2,28.4,18.6,27.9,18.6z"/>
		</g>
		<g>
			<path class="st0" d="M25.5,21.1h-3.8c-1.9,0-3.4-1.5-3.4-3.4c0-0.6,0.4-1,1-1s1,0.4,1,1v0.1c0,0.8,0.6,1.4,1.4,1.4h3.8
				c0.8,0,1.4-0.6,1.4-1.4c0-0.6,0.4-1,1-1s1,0.4,1,1C28.9,19.6,27.3,21.1,25.5,21.1z"/>
		</g>
	</g>
	<g>
		<path class="st0" d="M60.6,66.2H14.4c-3.5,0-6.3-2.8-6.3-6.3v-40c0-3.5,2.8-6.3,6.3-6.3h5.8v1c0,0.6-0.4,1-1,1c-0.1,0-0.2,0-0.3,0
			h-4.5c-2.4,0-4.3,1.9-4.3,4.3v40c0,2.4,1.9,4.3,4.3,4.3h46.1c2.4,0,4.3-1.9,4.3-4.3v-40c0-2.4-1.9-4.3-4.3-4.3H56
			c-0.6,0.2-1.2-0.3-1.2-0.9v-1l1-0.1h4.8c3.5,0,6.3,2.8,6.3,6.3v40C66.8,63.4,64,66.2,60.6,66.2z"/>
	</g>
	<g>
		<path class="st0" d="M47.1,15.7c-0.1,0-0.2,0-0.3,0H28.1c-0.6,0.2-1.2-0.3-1.2-0.9v-1l1-0.1h20.2v1C48.1,15.2,47.7,15.7,47.1,15.7
			z"/>
	</g>
	<g>
		<path class="st0" d="M55.8,18.6c-0.6,0-1-0.4-1-1v-5.4c0-0.8-0.6-1.4-1.4-1.4h-3.8c-0.8,0-1.4,0.6-1.4,1.4v5.4c0,0.6-0.4,1-1,1
			s-1-0.4-1-1v-5.4c0-1.9,1.5-3.4,3.4-3.4h3.8c1.9,0,3.4,1.5,3.4,3.4v5.4C56.8,18.2,56.4,18.6,55.8,18.6z"/>
	</g>
	<g>
		<path class="st0" d="M53.4,21.1h-3.8c-1.9,0-3.4-1.5-3.4-3.4c0-0.6,0.4-1,1-1s1,0.4,1,1v0.1c0,0.8,0.6,1.4,1.4,1.4h3.8
			c0.8,0,1.4-0.6,1.4-1.4c0-0.6,0.4-1,1-1s1,0.4,1,1C56.8,19.6,55.3,21.1,53.4,21.1z"/>
	</g>
	<g>
		<path class="st0" d="M59.3,27.9H15.7c-0.6,0-1-0.4-1-1s0.4-1,1-1h43.6c0.6,0,1,0.4,1,1S59.8,27.9,59.3,27.9z"/>
	</g>
	<g>
		<path class="st0" d="M30.4,59.6c-0.6,0-1.1-0.2-1.6-0.5c-0.9-0.6-1.3-1.7-1.1-2.7l1-6c0-0.3,0-0.5-0.2-0.7l-4.4-4.3
			c-0.8-0.7-1-1.8-0.7-2.8c0.3-1,1.2-1.7,2.2-1.9l6.1-0.9c0.3,0,0.5-0.2,0.6-0.4l2.7-5.5c0.5-1,1.4-1.5,2.5-1.5c0,0,0,0,0,0
			c1.1,0,2,0.6,2.5,1.5l2.7,5.5c0.1,0.2,0.3,0.4,0.6,0.4l6.1,0.9c1.1,0.2,1.9,0.9,2.2,1.9c0.3,1,0.1,2.1-0.7,2.8l-4.4,4.3
			c-0.2,0.2-0.3,0.4-0.2,0.7l1,6c0.2,1-0.2,2.1-1.1,2.7c-0.9,0.6-2,0.7-2.9,0.2l-5.4-2.8c-0.2-0.1-0.5-0.1-0.7,0l-5.4,2.8
			C31.3,59.5,30.9,59.6,30.4,59.6z M37.5,34.3c-0.1,0-0.5,0-0.7,0.4l-2.7,5.5c-0.4,0.8-1.2,1.4-2.1,1.5L26,42.6
			c-0.4,0.1-0.6,0.4-0.6,0.5c0,0.1-0.1,0.5,0.2,0.8l4.4,4.3c0.7,0.6,1,1.6,0.8,2.5l-1,6c-0.1,0.4,0.2,0.7,0.3,0.8
			c0.1,0.1,0.4,0.3,0.8,0.1l5.4-2.8c0.8-0.4,1.8-0.4,2.6,0l5.4,2.8c0.4,0.2,0.7,0,0.8-0.1c0.1-0.1,0.4-0.3,0.3-0.8l-1-6
			c-0.2-0.9,0.1-1.8,0.8-2.5l4.4-4.3c0.3-0.3,0.2-0.7,0.2-0.8c0-0.1-0.2-0.5-0.6-0.5L43,41.8c-0.9-0.1-1.7-0.7-2.1-1.5l-2.7-5.5
			C38,34.4,37.6,34.3,37.5,34.3z"/>
	</g>
</g>
</svg>
