<?xml version="1.0" encoding="utf-8"?>
<!-- Generator: Adobe Illustrator 25.0.1, SVG Export Plug-In . SVG Version: 6.00 Build 0)  -->
<svg version="1.1" xmlns="http://www.w3.org/2000/svg" xmlns:xlink="http://www.w3.org/1999/xlink" x="0px" y="0px"
	 viewBox="0 0 75 75" style="enable-background:new 0 0 75 75;" xml:space="preserve">
<style type="text/css">
	.st0{display:none;}
	.st1{display:inline;opacity:0.1;fill:#231F20;}
	.st2{display:inline;opacity:0.1;fill:#FFF962;}
	.st3{fill:#981B46;}
	.st4{fill:#FFFFFF;}
	.st5{fill:none;stroke:#981B46;stroke-width:4;stroke-linecap:round;stroke-miterlimit:10;}
	.st6{fill:none;stroke:#981B46;stroke-width:2;stroke-linecap:round;stroke-miterlimit:10;}
	.st7{fill:none;stroke:#981B46;stroke-width:3;stroke-miterlimit:10;}
	.st8{fill:none;stroke:#981B46;stroke-width:2;stroke-miterlimit:10;}
	.st9{fill:none;stroke:#981B46;stroke-width:2.1414;stroke-linecap:round;stroke-miterlimit:10;}
</style>
<g id="Layer_1">
</g>
<g id="Layer_2" class="st0">
</g>
<g id="Layer_3">
	<g>
		<g>
			<g>
				<path class="st3" d="M27.9,17.1c-0.6,0-1-0.4-1-1v-5.4c0-0.8-0.6-1.4-1.4-1.4h-3.8c-0.8,0-1.4,0.6-1.4,1.4v5.4c0,0.6-0.4,1-1,1
					s-1-0.4-1-1v-5.4c0-1.9,1.5-3.4,3.4-3.4h3.8c1.9,0,3.4,1.5,3.4,3.4v5.4C28.9,16.7,28.4,17.1,27.9,17.1z"/>
			</g>
			<g>
				<path class="st3" d="M25.5,19.6h-3.8c-1.9,0-3.4-1.5-3.4-3.4c0-0.6,0.4-1,1-1s1,0.4,1,1v0.1c0,0.8,0.6,1.4,1.4,1.4h3.8
					c0.8,0,1.4-0.6,1.4-1.4c0-0.6,0.4-1,1-1s1,0.4,1,1C28.9,18.1,27.3,19.6,25.5,19.6z"/>
			</g>
		</g>
		<g>
			<g>
				<path class="st3" d="M60.6,67.7H14.4c-3.5,0-6.3-2.8-6.3-6.3v-40c0-3.5,2.8-6.3,6.3-6.3h5.8v1c0,0.9,0.6,1.5,1.4,1.5h3.8
					c0.8,0,1.4-0.6,1.4-1.4v-1l1-0.1h20.2v1c0,0.9,0.6,1.5,1.4,1.5h3.8c0.8,0,1.4-0.6,1.4-1.4v-1l1-0.1h4.8c3.5,0,6.3,2.8,6.3,6.3
					v40C66.8,64.9,64,67.7,60.6,67.7z M14.4,17.1c-2.4,0-4.3,1.9-4.3,4.3v40c0,2.4,1.9,4.3,4.3,4.3h46.1c2.4,0,4.3-1.9,4.3-4.3v-40
					c0-2.4-1.9-4.3-4.3-4.3h-3.9c-0.4,1.5-1.7,2.5-3.3,2.5h-3.8c-1.6,0-2.9-1.1-3.3-2.5H28.7c-0.4,1.5-1.7,2.5-3.3,2.5h-3.8
					c-1.6,0-2.9-1.1-3.3-2.5H14.4z"/>
			</g>
			<g>
				<path class="st3" d="M55.8,17.1c-0.6,0-1-0.4-1-1v-5.4c0-0.8-0.6-1.4-1.4-1.4h-3.8c-0.8,0-1.4,0.6-1.4,1.4v5.4c0,0.6-0.4,1-1,1
					s-1-0.4-1-1v-5.4c0-1.9,1.5-3.4,3.4-3.4h3.8c1.9,0,3.4,1.5,3.4,3.4v5.4C56.8,16.7,56.4,17.1,55.8,17.1z"/>
			</g>
			<g>
				<path class="st3" d="M53.4,19.6h-3.8c-1.9,0-3.4-1.5-3.4-3.4c0-0.6,0.4-1,1-1s1,0.4,1,1v0.1c0,0.8,0.6,1.4,1.4,1.4h3.8
					c0.8,0,1.4-0.6,1.4-1.4c0-0.6,0.4-1,1-1s1,0.4,1,1C56.8,18.1,55.3,19.6,53.4,19.6z"/>
			</g>
		</g>
		<g>
			<path class="st3" d="M59.3,29.4H15.7c-0.6,0-1-0.4-1-1s0.4-1,1-1h43.6c0.6,0,1,0.4,1,1S59.8,29.4,59.3,29.4z"/>
		</g>
		<g>
			<path class="st3" d="M28.5,62.3c-0.3,0-0.5-0.1-0.8-0.2c-0.4-0.3-0.6-0.8-0.5-1.3l1.6-9.4L22,44.8c-0.4-0.3-0.5-0.9-0.3-1.3
				c0.2-0.5,0.6-0.8,1.1-0.9l9.4-1.4l4.2-8.5c0.2-0.4,0.7-0.7,1.2-0.7c0.5,0,0.9,0.3,1.2,0.7l4.2,8.5l9.4,1.4
				c0.5,0.1,0.9,0.4,1.1,0.9c0.2,0.5,0,1-0.3,1.3l-6.8,6.6l1.6,9.4c0.1,0.5-0.1,1-0.5,1.3c-0.4,0.3-0.9,0.3-1.4,0.1l-8.4-4.4
				l-8.4,4.4C28.9,62.3,28.7,62.3,28.5,62.3z M24.4,44.4l6.1,5.9c0.3,0.3,0.4,0.7,0.4,1.2l-1.4,8.3l7.5-3.9c0.4-0.2,0.8-0.2,1.2,0
				l7.5,3.9l-1.4-8.3c-0.1-0.4,0.1-0.9,0.4-1.2l6.1-5.9l-8.4-1.2c-0.4-0.1-0.8-0.3-1-0.7l-3.7-7.6l-3.7,7.6c-0.2,0.4-0.6,0.7-1,0.7
				L24.4,44.4z M37.2,57.6C37.2,57.6,37.2,57.6,37.2,57.6L37.2,57.6z M37.4,56.7L37.4,56.7L37.4,56.7z M29.1,51.7L29.1,51.7
				L29.1,51.7z M45.9,51.7L45.9,51.7C45.9,51.7,45.9,51.7,45.9,51.7z M52,44.6C52,44.6,52,44.6,52,44.6L52,44.6z M23,44.6L23,44.6
				C23,44.6,23,44.6,23,44.6z M32,41.6C32,41.6,32,41.6,32,41.6L32,41.6z M32.5,41.2C32.5,41.2,32.5,41.2,32.5,41.2L32.5,41.2z
				 M42.5,41.2L42.5,41.2C42.5,41.2,42.5,41.2,42.5,41.2z M36.9,33.6C36.9,33.6,36.9,33.6,36.9,33.6L36.9,33.6z M38.1,33.6
				L38.1,33.6C38.1,33.6,38.1,33.6,38.1,33.6z"/>
		</g>
	</g>
</g>
</svg>
