<?xml version="1.0" encoding="utf-8"?>
<!-- Generator: Adobe Illustrator 25.0.1, SVG Export Plug-In . SVG Version: 6.00 Build 0)  -->
<svg version="1.1" id="Layer_1" xmlns="http://www.w3.org/2000/svg" xmlns:xlink="http://www.w3.org/1999/xlink" x="0px" y="0px"
	 viewBox="0 0 75 75" style="enable-background:new 0 0 75 75;" xml:space="preserve">
<style type="text/css">
	.st0{fill:#981B46;}
</style>
<g>
	<g>
		<path class="st0" d="M25.2,12.8c-1.9,2.4-3.1,2.7-5.7,1.9c-0.3-0.1-0.8,0.1-1,0.3c-0.7,0.6-1.4,1.3-2,2.1c-0.5,0.5-1,0.8-1.7,0.3
			c-0.6-0.5-0.3-1.1,0.1-1.6c0.3-0.3,0.6-0.7,1-1c1.1-1,1.9-1.8,1.5-3.6c-0.3-1.5,0.7-2.7,2.1-3.5c1.4-0.7,2.8-0.7,4.1,0.2
			c0.6,0.5,1,0.4,1.7,0.1c8.9-4,17.9-4.1,27-0.2c0.7,0.3,1.2,0.4,1.8-0.1c1.3-0.9,2.8-0.8,4.1,0c1.4,0.9,2.1,2.2,1.9,3.9
			c-0.2,1.5,1.4,3,2.9,2.7c1.7-0.3,3,0.2,4,1.5c1,1.4,1.1,2.8,0.3,4.3c-0.4,0.6-0.2,1.1,0.1,1.6c7.1,13.1,4.6,29-6.2,39.4
			c-0.5,0.4-0.7,0.8-0.5,1.5c0.4,1.7-0.2,3.2-1.7,4.2c-1.5,1-3,0.9-4.5,0c-0.3-0.2-1-0.2-1.3-0.1c-9.4,4.3-18.8,4.3-28.2,0
			c-0.6-0.3-1-0.3-1.6,0.1c-1.4,0.8-2.9,0.7-4.2-0.2c-1.4-0.9-1.9-2.3-1.7-4c0-0.4-0.1-1-0.4-1.3c-5.3-5.1-8.6-11.3-9.9-18.5
			c-0.3-1.5-0.3-3-0.4-4.5c0-0.7-0.2-1.1-0.9-1.5c-1.5-0.7-2.3-2.3-2.1-4c0.2-1.7,1.3-3.1,3-3.5c0.9-0.2,1-0.7,1.3-1.4
			c1-2.5,2.2-5,3.3-7.4c0.3-0.7,0.9-1.2,1.6-0.7c0.7,0.5,0.4,1.1,0.1,1.7c-1.1,2.4-2.2,4.9-3.2,7.4c-0.3,0.8,1.1,2.3,2,2.2
			c3.7-0.4,7.3-0.8,11-1.2c0.4,0,0.9-0.3,1.2-0.6c1-1.2,2.1-1.7,3.7-1.7c0.4,0,1-0.2,1.3-0.6c2-2.1,4-4.3,5.9-6.4
			c0.2-0.3,0.3-0.7,0.3-1.1c0-0.3-0.2-0.7-0.2-0.9c0.5-1.5-0.7-1.9-1.7-2.4C30.6,15.1,27.9,14,25.2,12.8z M31.3,32.6
			c-0.7,2.1-2,3.3-4.1,3.2c-0.9,0-1.3,0.3-1.6,1.1c-3,6.6-4.2,13.5-3.8,20.7c0.1,1.1,0.1,2,1.4,2.3c0.4,0.1,0.8,0.4,1.1,0.7
			c0.5,0.6,0.9,0.6,1.6,0.3c9.8-3.8,18.1-9.8,24.9-17.9c0.6-0.7,0.7-1.2,0.3-2c-0.3-0.5-0.4-1.1-0.3-1.6c0.1-0.7-0.2-1-0.8-1.2
			c-1.7-0.7-3.3-1.5-5-2.1C40.5,34.3,36,33.1,31.3,32.6z M56.4,59.4c0-1.7-0.1-3.4,0-5.1c0-0.4,0.7-0.7,1-1c0.3,0.3,0.8,0.7,0.8,1
			c0.1,1.5-0.1,3,0,4.6c0,0.4,0.2,0.9,0.5,1.1c0.2,0.1,0.8,0,1-0.3c2.7-2.5,4.8-5.5,6.5-8.7c0.3-0.6,0.3-1-0.2-1.5
			c-2.6-2.2-5.3-4.4-7.9-6.6c-0.2-0.2-0.6-0.2-0.9-0.2c-0.1,0.4-0.2,0.7-0.1,1.1c0.2,1.4,0.5,2.7,0.8,4.1c0.1,0.7,0.1,1.3-0.8,1.4
			c-0.8,0.1-1-0.4-1.1-1.1c-0.3-1.6-0.6-3.1-1-4.8c-0.9,0.4-1.6-0.7-2.5,0.4c-7,8.7-15.7,15-26.1,18.9c-0.7,0.3-1.1,0.7-0.9,1.4
			c0.1,0.4,0.5,0.8,0.9,1c4.8,2.3,10,3.2,15.3,2.8c3.6-0.3,7.2-1.2,10.5-2.9c0.3-0.2,0.8-0.6,0.8-1C52.9,61.6,53.6,60.5,56.4,59.4z
			 M18.6,60.2c1.4-0.3,1.3-1.2,1.2-2c-0.6-7.4,0.7-14.4,3.5-21.2c0.6-1.4,1.3-2.5,0.2-4c-0.4-0.6-0.5-0.9-1.2-0.9
			c-3.3,0.4-6.5,0.7-9.8,1.1c-0.3,0-0.8,0.5-0.9,0.9c-0.3,1.2-0.9,2.3-2.1,2.8c-0.7,0.3-0.9,0.7-0.8,1.5c0.4,6.7,2.7,12.7,6.6,18.1
			C16.3,57.8,17.5,59.1,18.6,60.2z M60.5,15.9c-0.3-0.2-0.5-0.4-0.7-0.6c-0.6-0.7-1.2-1-2.2-0.4c-1.4,0.8-3.4,0.3-4.5-1
			c-0.5-0.6-0.9-0.7-1.6-0.4c-2.2,0.9-4.3,1.8-6.5,2.7c-1.3,0.6-2.6,1.2-2.1,3c0,0.1-0.1,0.3-0.1,0.5c0.1,0.4,0.1,1,0.4,1.2
			c4.4,4.1,8,8.7,10.6,14.1c0.4,0.9,1.9,0.9,2.4,0.1c2.3-3.9,4.1-8.1,5.5-12.5c0.1-0.3,0-0.8-0.3-1C59.6,19.6,59.3,18.4,60.5,15.9z
			 M67.4,47.8c3.2-7.3,2.3-18.9-2.4-25.7c-1.3,0.3-1.2,0.4-1.8,1.7c-1.7,4-3.5,8-5.3,11.9c-0.3,0.6-0.4,1,0,1.7
			c0.4,0.8,0.4,1.7,0.6,2.6c0.1,0.4,0.1,0.8,0.3,1C61.8,43.3,64.6,45.6,67.4,47.8z M30.1,28.7c0.6,1.2,1.1,1.9,2.3,2.1
			c6.5,0.8,12.7,2.8,18.6,5.7c0.3,0.1,0.6,0.1,1,0.2c0-0.3,0-0.7-0.1-1c-2.5-5.1-5.8-9.5-10.1-13.3c-0.2-0.2-0.8-0.3-1.1-0.2
			c-1.1,0.4-2.2,0.4-3.4,0c-0.3-0.1-0.8,0-1,0.2C34.2,24.4,32.1,26.6,30.1,28.7z M41.7,15.4c3.4-1.4,6.5-2.7,9.6-4
			c0.4-0.2,0.8-0.6,0.9-0.9c0-0.3-0.5-0.7-0.8-0.9c-4.7-2.2-9.7-3-14.8-2.6C32.8,7.3,29.3,8.2,26,9.9c-0.3,0.1-0.5,0.4-0.6,0.7
			c0,0.1,0.3,0.5,0.6,0.6c3.4,1.4,6.8,2.7,10.4,4.2C38,14,39.9,14,41.7,15.4z M7.7,35.3c1.2,0,2.1-0.9,2-2c0-1.1-0.9-2-2-2
			c-1.1,0-2.1,1-2.1,2.1C5.7,34.5,6.6,35.3,7.7,35.3z M21.4,65.4c1.1,0,2-0.8,2.1-1.9c0.1-1.1-0.9-2.1-2-2.2c-1.1,0-2.1,1-2.1,2.1
			C19.4,64.5,20.3,65.4,21.4,65.4z M21.5,9.1c-1.1,0-2.1,1-2.1,2c0,1,0.9,2,2,2c1.1,0,2-0.8,2.1-1.9C23.5,10.2,22.6,9.1,21.5,9.1z
			 M54.2,11.1c0,1.2,0.8,2.1,2,2.1c1.1,0,1.9-0.8,2-2c0-1.2-0.9-2.1-2-2.1C55.1,9.1,54.2,10,54.2,11.1z M54.7,37.5
			c-1.1,0-2,0.8-2,1.9c0,1.2,0.8,2.1,1.9,2.1c1.1,0,2-0.8,2-1.9C56.7,38.4,55.9,37.5,54.7,37.5z M56.7,65.6c1,0,2-0.9,2.1-2
			c0.1-1.1-0.9-2.1-2-2.1c-1.1,0-2.1,0.9-2.1,2C54.7,64.6,55.7,65.6,56.7,65.6z M41,18.5c0-1.1-0.9-2.1-2-2.1c-1,0-2,1-2,2
			c0,1,0.9,2,2,2C40.1,20.5,41,19.6,41,18.5z M29.3,31.8c0-1.1-0.8-2-1.9-2c-1.1,0-2.1,0.8-2.1,2c0,1.1,0.8,2,1.9,2.1
			C28.3,33.9,29.2,33,29.3,31.8z M63.8,16.3c-1.2,0-2.1,0.8-2.1,2c0,1.1,0.8,2,1.9,2c1.1,0,2.1-0.9,2.1-2
			C65.8,17.2,65,16.3,63.8,16.3z"/>
	</g>
</g>
</svg>
