<?xml version="1.0" encoding="utf-8"?>
<!-- Generator: Adobe Illustrator 25.0.1, SVG Export Plug-In . SVG Version: 6.00 Build 0)  -->
<svg version="1.1" id="Layer_1" xmlns="http://www.w3.org/2000/svg" xmlns:xlink="http://www.w3.org/1999/xlink" x="0px" y="0px"
	 viewBox="0 0 75 75" style="enable-background:new 0 0 75 75;" xml:space="preserve">
<style type="text/css">
	.st0{fill:#981B46;}
</style>
<g>
	<g>
		<g>
			<path class="st0" d="M27.4,63.2c-0.3,0-0.5-0.1-0.7-0.3c-0.4-0.4-0.4-1,0-1.4l5.2-5.2c0.5-0.5,1.2-0.8,1.9-0.8h7.3
				c0.2,0,0.4-0.1,0.5-0.2l2.8-2.8c0.4-0.4,1-0.4,1.4,0s0.4,1,0,1.4L43,56.7c-0.5,0.5-1.2,0.8-1.9,0.8h-7.3c-0.2,0-0.4,0.1-0.5,0.2
				l-5.2,5.2C27.9,63.1,27.6,63.2,27.4,63.2z"/>
		</g>
		<g>
			<path class="st0" d="M47.8,63.3c-0.3,0-0.5-0.1-0.7-0.3l-3.3-3.3c-0.4-0.4-0.4-1,0-1.4s1-0.4,1.4,0l3.3,3.3c0.4,0.4,0.4,1,0,1.4
				C48.3,63.2,48.1,63.3,47.8,63.3z"/>
		</g>
		<g>
			<path class="st0" d="M62.6,48.3c-0.3,0-0.5-0.1-0.7-0.3l-3.1-3.1c-0.4-0.4-0.4-1,0-1.4s1-0.4,1.4,0l3.1,3.1c0.4,0.4,0.4,1,0,1.4
				C63.1,48.2,62.8,48.3,62.6,48.3z"/>
		</g>
		<g>
			<path class="st0" d="M10.8,47.7c-0.3,0-0.5-0.1-0.7-0.3c-0.4-0.4-0.4-1,0-1.4l5-5c0.4-0.4,1-0.4,1.4,0s0.4,1,0,1.4l-5,5
				C11.3,47.6,11.1,47.7,10.8,47.7z"/>
		</g>
		<g>
			<path class="st0" d="M22.2,72.4c-0.8,0-1.7-0.3-2.3-1l-3.1-3.1c-0.4-0.4-0.4-1,0-1.4s1-0.4,1.4,0l3.1,3.1c0.5,0.5,1.3,0.5,1.8,0
				l3.9-3.9c0.2-0.2,0.4-0.6,0.4-0.9s-0.1-0.7-0.4-0.9L9.6,46.9c-0.5-0.5-1.3-0.5-1.8,0l-3.9,3.9c-0.5,0.5-0.5,1.3,0,1.8L7,55.7
				c0.4,0.4,0.4,1,0,1.4s-1,0.4-1.4,0L2.5,54c-1.3-1.3-1.3-3.4,0-4.6l3.9-3.9c1.3-1.3,3.4-1.3,4.6,0l17.4,17.4
				c1.3,1.3,1.3,3.4,0,4.6l-3.9,3.9C23.9,72.1,23,72.4,22.2,72.4z"/>
		</g>
		<g>
			<path class="st0" d="M52.8,73.7c-0.8,0-1.7-0.3-2.3-1l-3.9-3.9c-1.3-1.3-1.3-3.4,0-4.6L64,46.8c1.3-1.3,3.4-1.3,4.6,0l3.9,3.9
				c0.6,0.6,1,1.4,1,2.3s-0.3,1.7-1,2.3L55.1,72.7C54.5,73.3,53.6,73.7,52.8,73.7z M66.3,47.8c-0.3,0-0.7,0.1-0.9,0.4L48,65.6
				c-0.5,0.5-0.5,1.3,0,1.8l3.9,3.9c0.5,0.5,1.3,0.5,1.8,0l17.4-17.4c0.2-0.2,0.4-0.6,0.4-0.9s-0.1-0.7-0.4-0.9l-3.9-3.9
				C66.9,47.9,66.6,47.8,66.3,47.8z"/>
		</g>
		<g>
			<g>
				<path class="st0" d="M44.7,24.4c-0.3,0-0.5-0.1-0.7-0.3c-0.4-0.4-0.4-1,0-1.4l2.8-2.8c0.5-0.5,0.8-1.1,0.8-1.8
					c0-0.7-0.3-1.3-0.8-1.8c-1-1-2.7-1-3.7,0L38,21.5c-0.4,0.4-1,0.4-1.4,0s-0.4-1,0-1.4l5.2-5.2c1.8-1.8,4.7-1.8,6.5,0
					s1.8,4.7,0,6.5l-2.8,2.8C45.2,24.3,45,24.4,44.7,24.4z"/>
			</g>
			<g>
				<path class="st0" d="M48.4,31c-0.3,0-0.5-0.1-0.7-0.3c-0.4-0.4-0.4-1,0-1.4l2.8-2.8c1-1,1-2.6,0-3.7c-1-1-2.6-1-3.7,0L44,25.6
					c-0.4,0.4-1,0.4-1.4,0s-0.4-1,0-1.4l2.8-2.8c1.8-1.8,4.7-1.8,6.5,0s1.8,4.7,0,6.5l-2.8,2.8C48.9,30.9,48.7,31,48.4,31z"/>
			</g>
			<g>
				<path class="st0" d="M52.1,37.5c-0.3,0-0.5-0.1-0.7-0.3c-0.4-0.4-0.4-1,0-1.4l2.8-2.8c1-1,1-2.6,0-3.7s-2.6-1-3.7,0l-2.8,2.8
					c-0.4,0.4-1,0.4-1.4,0s-0.4-1,0-1.4l2.8-2.8c1.8-1.8,4.7-1.8,6.5,0s1.8,4.7,0,6.5l-2.8,2.8C52.6,37.4,52.4,37.5,52.1,37.5z"/>
			</g>
			<g>
				<path class="st0" d="M55.8,44c-0.3,0-0.5-0.1-0.7-0.3c-0.4-0.4-0.4-1,0-1.4l2.8-2.8c1-1,1-2.6,0-3.7c-1-1-2.6-1-3.7,0l-2.8,2.8
					c-0.4,0.4-1,0.4-1.4,0s-0.4-1,0-1.4l2.8-2.8c1.8-1.8,4.7-1.8,6.5,0s1.8,4.7,0,6.5l-2.8,2.8C56.3,43.9,56,44,55.8,44z"/>
			</g>
		</g>
		<g>
			<path class="st0" d="M33.8,28.1c-1.2,0-2.3-0.5-3.2-1.3l-6-6c-1.8-1.8-1.8-4.6,0-6.4s4.6-1.8,6.4,0l6,6c0.9,0.9,1.3,2,1.3,3.2
				s-0.5,2.3-1.3,3.2C36.2,27.6,35.1,28.1,33.8,28.1z M27.8,15c-0.6,0-1.3,0.2-1.8,0.7c-1,1-1,2.6,0,3.6l6,6c1,1,2.6,1,3.6,0
				c0.5-0.5,0.7-1.1,0.7-1.8c0-0.7-0.3-1.3-0.7-1.8l-6-6C29.1,15.3,28.5,15,27.8,15z"/>
		</g>
		<g>
			<path class="st0" d="M28.9,33.1c-1.2,0-2.3-0.4-3.2-1.3L20.9,27c-1.8-1.8-1.8-4.6,0-6.4s4.6-1.8,6.4,0l4.8,4.8
				c1.8,1.8,1.8,4.6,0,6.4C31.2,32.7,30,33.1,28.9,33.1z M24.1,21.3c-0.6,0-1.3,0.2-1.8,0.7c-1,1-1,2.6,0,3.6l4.8,4.8
				c1,1,2.6,1,3.6,0s1-2.6,0-3.6L25.9,22C25.4,21.5,24.7,21.3,24.1,21.3z"/>
		</g>
		<g>
			<path class="st0" d="M23.9,38.1c-1.2,0-2.3-0.4-3.2-1.3L16.9,33c-0.9-0.9-1.3-2-1.3-3.2s0.5-2.3,1.3-3.2c0.9-0.9,2-1.3,3.2-1.3
				s2.3,0.5,3.2,1.3l3.7,3.7c0.9,0.9,1.3,2,1.3,3.2s-0.5,2.3-1.3,3.2C26.2,37.6,25,38.1,23.9,38.1z M20.1,27.3
				c-0.6,0-1.3,0.2-1.8,0.7s-0.7,1.1-0.7,1.8c0,0.7,0.3,1.3,0.7,1.8l3.7,3.7c1,1,2.6,1,3.6,0s1-2.6,0-3.6L21.9,28
				C21.4,27.6,20.8,27.3,20.1,27.3z"/>
		</g>
		<g>
			<path class="st0" d="M18.9,43.1c-1.2,0-2.3-0.5-3.2-1.3l-1.2-1.2c-0.9-0.9-1.3-2-1.3-3.2s0.5-2.3,1.3-3.2c0.9-0.9,2-1.3,3.2-1.3
				s2.3,0.5,3.2,1.3l1.2,1.2c0.9,0.9,1.3,2,1.3,3.2s-0.5,2.3-1.3,3.2C21.2,42.6,20.1,43.1,18.9,43.1z M17.7,34.8
				c-0.7,0-1.3,0.3-1.8,0.7s-0.7,1.1-0.7,1.8s0.3,1.3,0.7,1.8l1.2,1.2c1,1,2.6,1,3.6,0c0.5-0.5,0.7-1.1,0.7-1.8s-0.3-1.3-0.7-1.8
				l-1.2-1.2C19,35.1,18.4,34.8,17.7,34.8z"/>
		</g>
		<g>
			<path class="st0" d="M40.8,17c-0.2,0-0.5-0.1-0.7-0.3c-1.3-1.2-5.7-4.5-8-3.3c-0.5,0.3-0.6,0.6-0.6,0.6c-0.1,0.5-0.7,0.8-1.2,0.7
				s-0.8-0.7-0.7-1.2c0-0.2,0.4-1.1,1.7-1.8c3.9-1.9,9.6,3.1,10.2,3.6c0.4,0.4,0.4,1,0.1,1.4C41.3,16.9,41.1,17,40.8,17z"/>
		</g>
	</g>
	<g>
		<path class="st0" d="M47.6,51.2c-0.3,0-0.5-0.1-0.7-0.3c-0.4-0.4-0.4-1,0-1.4l4.1-4.1c0.4-0.4,1-0.4,1.4,0s0.4,1,0,1.4l-4.1,4.1
			C48.1,51.1,47.9,51.2,47.6,51.2z"/>
	</g>
	<g>
		<path class="st0" d="M37.4,8.1c-0.6,0-1-0.4-1-1V2.3c0-0.6,0.4-1,1-1s1,0.4,1,1v4.8C38.4,7.7,38,8.1,37.4,8.1z"/>
	</g>
	<g>
		<path class="st0" d="M47.9,10.6c-0.3,0-0.6-0.1-0.8-0.4c-0.3-0.5-0.2-1.1,0.3-1.4L54,4.2c0.5-0.3,1.1-0.2,1.4,0.3
			c0.3,0.5,0.2,1.1-0.3,1.4l-6.6,4.6C48.3,10.5,48.1,10.6,47.9,10.6z"/>
	</g>
	<g>
		<path class="st0" d="M25.6,10.7c-0.2,0-0.5-0.1-0.7-0.3L19.2,5c-0.4-0.4-0.4-1,0-1.4s1-0.4,1.4,0L26.3,9c0.4,0.4,0.4,1,0,1.4
			C26.1,10.6,25.8,10.7,25.6,10.7z"/>
	</g>
	<g>
		<path class="st0" d="M15.5,65.8h-7v-7h7V65.8z M10.5,63.8h3v-3h-3V63.8z"/>
	</g>
</g>
</svg>
