<?xml version="1.0" encoding="utf-8"?>
<!-- Generator: Adobe Illustrator 25.0.1, SVG Export Plug-In . SVG Version: 6.00 Build 0)  -->
<svg version="1.1" id="Layer_1" xmlns="http://www.w3.org/2000/svg" xmlns:xlink="http://www.w3.org/1999/xlink" x="0px" y="0px"
	 viewBox="0 0 75 75" style="enable-background:new 0 0 75 75;" xml:space="preserve">
<style type="text/css">
	.st0{fill:#981B46;}
</style>
<g>
	<g>
		<g>
			<g>
				<path class="st0" d="M20.4,50h-7.5V10.7l1.7,1.6c8,7.6,12.7,18.4,12.8,29.5v1.3l-1.3-0.3c-0.4-0.1-0.8-0.2-1.2-0.2
					c-2.8,0-5,2.2-5,5c0,0.4,0,0.8,0.1,1.2L20.4,50z M14.9,48H18c0-0.1,0-0.3,0-0.4c0-4,3.3-7.3,7.4-7c-0.4-9.3-4.1-18.3-10.5-25.1
					V48z"/>
			</g>
			<g>
				<polygon class="st0" points="20.5,50.1 19.2,50 12.9,50 12.9,48 13.9,48 19.9,48 				"/>
			</g>
			<g>
				<path class="st0" d="M38.4,61.4H12.9V48h7l0.2,0.8c0.6,2.2,2.6,3.8,4.9,3.8c2,0,3.8-1.2,4.6-3l0.4-0.9l0.9,0.4
					c4.5,2,7.4,6.4,7.4,11.4v0.9H38.4z M14.9,59.4h21.4C36,56,34,52.9,31,51.3c-1.3,2.1-3.5,3.3-6,3.3c-3,0-5.6-1.8-6.6-4.6h-3.5
					V59.4z"/>
			</g>
		</g>
		<g>
			<g>
				<path class="st0" d="M62.1,50h-7.5l0.3-1.2C55,48.4,55,48,55,47.6c0-3.1-2.9-5.7-6.2-4.9L47.6,43v-1.3
					c0.1-11.1,4.8-21.8,12.8-29.5l1.7-1.6V50z M57,48h3.1V15.5C53.8,22.3,50,31.3,49.6,40.6c4.1-0.3,7.4,3,7.4,7
					C57,47.7,57,47.9,57,48z"/>
			</g>
			<g>
				<polygon class="st0" points="61.1,50 54.6,50 55.1,48 55.9,48 62.1,48 62.1,50 				"/>
			</g>
			<g>
				<path class="st0" d="M62.1,61.4H36.6v-1c0-4.9,2.9-9.4,7.4-11.4l0.9-0.4l0.4,0.9c0.8,1.9,2.6,3,4.6,3c2.3,0,4.3-1.6,4.9-3.8
					l0.2-0.8h7L62.1,61.4L62.1,61.4z M38.7,59.4h21.4V50h-3.5c-1,2.7-3.6,4.6-6.6,4.6c-2.5,0-4.7-1.3-6-3.3C41,52.9,39,56,38.7,59.4
					z"/>
			</g>
		</g>
	</g>
	<g>
		<g>
			<path class="st0" d="M37.5,16.1l-0.7-0.7c-3.6-3.6-3.6-9.6,0-13.2l0.7-0.7l0.7,0.7c3.6,3.6,3.6,9.6,0,13.2L37.5,16.1z M37.5,4.4
				c-1.9,2.6-1.9,6.2,0,8.8C39.4,10.6,39.4,7,37.5,4.4z"/>
		</g>
		<g>
			<rect x="36.5" y="13.8" class="st0" width="2" height="21.9"/>
		</g>
		<g>
			<rect x="36.5" y="58.9" class="st0" width="2" height="12.8"/>
		</g>
		<g>
			<path class="st0" d="M37.5,73.5l-0.6-0.4c-3.3-2.4-5.7-5.7-6.9-9.5c-0.8-2.4-1.2-4.9-1.2-7.4v-3.1c0-1.1,0.5-4.4,1.3-5.6
				c2.7-4.3,4.8-8.6,6.2-12.9l0.2-0.7h1.9l0.2,0.7c1.4,4.2,3.4,8.6,6.2,12.9c0.8,1.3,1.3,4.6,1.3,5.6v3.1c0,2.5-0.4,5-1.2,7.4
				c-1.2,3.8-3.6,7.1-6.9,9.5L37.5,73.5z M37.5,37.3c-1.4,3.7-3.3,7.5-5.6,11.2c-0.5,0.8-1,3.6-1,4.6v3.1c0,2.3,0.4,4.6,1.1,6.8
				c1,3.2,3,6,5.6,8.1c2.6-2.1,4.5-4.9,5.6-8.1c0.7-2.2,1.1-4.5,1.1-6.8v-3.1c0-0.9-0.5-3.8-1-4.6C40.8,44.8,38.9,41,37.5,37.3z"/>
		</g>
	</g>
</g>
</svg>
