<?xml version="1.0" encoding="utf-8"?>
<!-- Generator: Adobe Illustrator 25.0.1, SVG Export Plug-In . SVG Version: 6.00 Build 0)  -->
<svg version="1.1" id="Layer_1" xmlns="http://www.w3.org/2000/svg" xmlns:xlink="http://www.w3.org/1999/xlink" x="0px" y="0px"
	 viewBox="0 0 75 75" style="enable-background:new 0 0 75 75;" xml:space="preserve">
<style type="text/css">
	.st0{fill:#981B46;}
</style>
<g>
	<g>
		<g>
			<path class="st0" d="M73.1,36h-32V4h32V36z M43.1,34h28V6h-28V34z"/>
		</g>
		<g>
			<path class="st0" d="M29.6,36H11.2L1.9,20l9.2-16h18.5l9.2,16L29.6,36z M12.3,34h16.2l8.1-14L28.5,6H12.3L4.2,20L12.3,34z"/>
		</g>
	</g>
	<g>
		<g>
			<path class="st0" d="M36.7,71H3.5l16.6-33.2L36.7,71z M6.7,69h26.8L20.1,42.2L6.7,69z"/>
		</g>
		<g>
			<path class="st0" d="M55.1,71c-8.8,0-16-7.2-16-16s7.2-16,16-16s16,7.2,16,16S63.9,71,55.1,71z M55.1,41c-7.7,0-14,6.3-14,14
				s6.3,14,14,14s14-6.3,14-14S62.8,41,55.1,41z"/>
		</g>
	</g>
</g>
</svg>
