<?xml version="1.0" encoding="utf-8"?>
<!-- Generator: Adobe Illustrator 25.0.1, SVG Export Plug-In . SVG Version: 6.00 Build 0)  -->
<svg version="1.1" id="Layer_1" xmlns="http://www.w3.org/2000/svg" xmlns:xlink="http://www.w3.org/1999/xlink" x="0px" y="0px"
	 viewBox="0 0 75 75" style="enable-background:new 0 0 75 75;" xml:space="preserve">
<style type="text/css">
	.st0{fill:#981B46;}
</style>
<g>
	<g>
		<path class="st0" d="M5.2,39.3c-0.6,10,2.6,18.6,10.5,25c8.1,6.6,17.3,8.1,27.2,5.3c-2.2-1.9-4.5-3.6-6.4-5.5
			c-2.5-2.5-4.8-5.2-5.9-8.7c-1.5-5,1.5-8.7,6.7-8.2c1.8,0.2,3.6,0.5,5.4,0.6c1.6,0.1,3.1-0.5,4.2-1.6c1.2-1.3,2.4-2.6,3.4-4
			c2-2.6,4.2-4.8,7.5-5.4c1.4-0.2,2.9-0.2,4.5-0.3c-0.4-2.6-1.3-5.1-2.6-7.5c-0.2-0.3-1-0.4-1.4-0.3c-2.9,0.3-5.7,0.3-8.4-0.8
			c-7.3-2.8-10-9.4-9.2-16.5c0.1-0.5,0.1-1,0.2-1.4c0.3-0.9,1.1-1.3,1.8-0.6c2,2.1,4.7,2.5,7.4,3.1c2.1,0.4,4.1,0.9,6.1,1.3
			c2-1.9,4-3.8,6-5.8c1.4-1.4,2.7-2.9,3.1-5c0.2-1.1,1.2-1.3,2-0.3c6.5,7,6.8,17.4-2.2,23.3c-1.1,0.7-2.3,1.3-3.5,2
			c2.3,4.6,3.4,9.4,3.4,14.6C64.9,55.9,55.8,68,43,71.7C25.2,76.9,7,65.8,3.6,47.6C0.3,29.9,13.1,12.8,31,11.2
			c2.1-0.2,2.1-0.1,2.4,2.1c0.4,2.4,1.2,4.7,1.6,7.1c0.2,1.4,0.3,2.9,0,4.2c-0.7,3.2-3,4.9-6.5,5.1c-1.3,0.1-2.6,0.2-3.9,0.5
			c-1.9,0.3-2.9,1.5-3.3,3.4c-0.2,1.2-0.3,2.5-0.5,3.7c-1,5-6.2,7.7-10.9,5.5C8.3,41.9,6.9,40.5,5.2,39.3z M62.7,42.5
			c0-0.9,0.1-1.8,0-2.7c-0.1-0.4-0.5-0.9-0.8-1c-2.9-0.5-5.6-0.1-7.7,2.1c-1.6,1.6-2.9,3.5-4.4,5.3c-2.6,3.2-5.8,4.3-9.8,3.5
			c-1.6-0.3-3.3-0.4-4.9-0.3c-1.5,0.1-2.4,1.1-2.8,2.5c-0.5,2,0.3,3.8,1.3,5.4c2.8,4.4,6.5,8,10.9,10.7c0.8,0.5,1.4,0.5,2.2,0
			C57,62.5,62.2,54,62.7,42.5z M31.1,13.3c-0.7,0.1-1.4,0.1-2.1,0.3C17.2,16.1,9.4,23,6,34.6c-0.1,0.6,0,1.4,0.2,2
			c1,2,2.6,3.4,4.7,4.3c3.4,1.5,7-0.3,7.8-3.9c0.2-0.8,0.3-1.5,0.3-2.3c0.3-4,1.9-5.9,5.8-6.7c1.6-0.3,3.2-0.3,4.7-0.6
			c2.3-0.4,3.5-1.8,3.5-4.2c0-1.2-0.2-2.4-0.4-3.6C32.2,17.5,31.7,15.5,31.1,13.3z M66.9,5.8c-3,3.1-6,6.2-8.8,9.1
			c0.8,1.9,1.7,3.6,2.2,5.3c0.5,1.8,0.6,3.6,0.9,5.4C71.3,21.1,71.7,11.7,66.9,5.8z M55.4,26.7c-0.6-0.4-1-0.6-1.4-0.8
			c-2.8-1.7-5.1-3.9-6.9-6.6c-0.4-0.6-0.7-1.3,0.1-1.8c0.7-0.4,1.2-0.1,1.6,0.6c0.1,0.1,0.2,0.3,0.3,0.4c2.2,3,5,5.3,8.3,6.8
			c0.4,0.2,0.8,0.3,1.7,0.6c-0.5-2.4-0.8-4.5-1.4-6.5c-0.6-2.2-2.1-3.6-4.4-4.1c-3.6-0.9-7.5-1-10.8-3
			C41.9,18.8,45.5,26.6,55.4,26.7z"/>
	</g>
	<g>
		<path class="st0" d="M20.1,60.3c-4.1,0-6.8-2.2-8.4-5.6c-1.6-3.4,1-6.6,5-6.2c1.4,0.1,2.5,0.8,3.5,1.7c0.7,0.6,1.5,1.2,2.3,1.5
			c2,0.8,3.1,2.3,3.3,4.4c0.2,1.8-1.1,3.5-2.9,3.9C22,60.2,21,60.2,20.1,60.3z M20,58.2c0.7-0.1,1.4-0.1,2-0.3s1.6-0.7,1.6-1.1
			c0.1-0.7-0.4-1.6-0.8-2.3c-0.2-0.4-0.8-0.5-1.2-0.7c-1.1-0.7-2.2-1.4-3.1-2.2c-1.1-0.9-3.1-1.3-4.3-0.5c-1,0.7-1.3,1.6-0.8,2.7
			C15,56.7,16.7,58.2,20,58.2z"/>
	</g>
</g>
</svg>
